<svg width="78" height="85" viewBox="0 0 78 85" fill="none" xmlns="http://www.w3.org/2000/svg">
<path d="M40.6875 35.1875C40.6875 43 36 53.9375 36 53.9375L40.6875 35.1875ZM37.5625 38.3125C37.5625 38.3125 42.25 25.8125 31.3125 16.4375C20.375 7.0625 3.1875 10.1875 3.1875 10.1875C3.1875 10.1875 3.1875 22.6875 12.5625 32.0625C21.9375 41.4375 37.5625 38.3125 37.5625 38.3125ZM40.6875 32.0625C40.6875 32.0625 36 19.5625 46.9375 10.1875C57.875 0.8125 75.0625 3.9375 75.0625 3.9375C75.0625 3.9375 75.0625 16.4375 65.6875 25.8125C56.3125 35.1875 40.6875 32.0625 40.6875 32.0625Z" stroke="white" stroke-width="5.5" stroke-linecap="round" stroke-linejoin="round"/>
<path d="M15.6875 53.9375H56.3125C56.3125 53.9375 59.4375 82.0625 36 82.0625C12.5625 82.0625 15.6875 53.9375 15.6875 53.9375Z" stroke="white" stroke-width="5.5" stroke-linecap="round" stroke-linejoin="round"/>
</svg>
