<svg width="100" height="100" viewBox="0 0 100 100" fill="none" xmlns="http://www.w3.org/2000/svg">
<path d="M54.6875 42.1875C54.6875 50 50 60.9375 50 60.9375L54.6875 42.1875ZM51.5625 45.3125C51.5625 45.3125 56.25 32.8125 45.3125 23.4375C34.375 14.0625 17.1875 17.1875 17.1875 17.1875C17.1875 17.1875 17.1875 29.6875 26.5625 39.0625C35.9375 48.4375 51.5625 45.3125 51.5625 45.3125ZM54.6875 39.0625C54.6875 39.0625 50 26.5625 60.9375 17.1875C71.875 7.8125 89.0625 10.9375 89.0625 10.9375C89.0625 10.9375 89.0625 23.4375 79.6875 32.8125C70.3125 42.1875 54.6875 39.0625 54.6875 39.0625Z" stroke="#075900" stroke-width="5.5" stroke-linecap="round" stroke-linejoin="round"/>
<path d="M29.6875 60.9375H70.3125C70.3125 60.9375 73.4375 89.0625 50 89.0625C26.5625 89.0625 29.6875 60.9375 29.6875 60.9375Z" stroke="#075900" stroke-width="5.5" stroke-linecap="round" stroke-linejoin="round"/>
</svg>
